HIERARCHY
ROOT hip
{
	OFFSET 0.000000 0.000000 0.000000 
	CHANNELS 6 Xposition Yposition Zposition Xrotation Zrotation Yrotation
	JOINT abdomen
	{
		OFFSET 0.000000 3.402643 0.000000 
		CHANNELS 3 Xrotation Zrotation Yrotation
		JOINT chest
		{
			OFFSET 0.000000 8.438565 -0.680529 
			CHANNELS 3 Xrotation Zrotation Yrotation
			JOINT neck
			{
				OFFSET 0.000000 10.207942 -0.272212 
				CHANNELS 3 Xrotation Zrotation Yrotation
				JOINT head
				{
					OFFSET 0.000000 3.130431 0.000000 
					CHANNELS 3 Xrotation Zrotation Yrotation
					End Site
					{
						OFFSET 0.000000 3.130435 0.000000 
					}
				}
			}
			JOINT lCollar
			{
				OFFSET 3.470700 6.669187 -0.816635 
				CHANNELS 3 Yrotation Zrotation Xrotation
				JOINT lShldr
				{
					OFFSET 3.198488 0.000000 0.000000 
					CHANNELS 3 Zrotation Yrotation Xrotation
					JOINT lForeArm
					{
						OFFSET 10.139888 0.000000 0.000000 
						CHANNELS 3 Yrotation Zrotation Xrotation
						JOINT lHand
						{
							OFFSET 8.370511 0.000000 0.000000 
							CHANNELS 3 Zrotation Yrotation Xrotation
							End Site
							{
								OFFSET 4.083176 0.000000 0.000000 
							}
						}
					}
				}
			}
			JOINT rCollar
			{
				OFFSET -3.470700 6.669187 -0.816635 
				CHANNELS 3 Yrotation Zrotation Xrotation
				JOINT rShldr
				{
					OFFSET -3.198488 0.000000 0.000000 
					CHANNELS 3 Zrotation Yrotation Xrotation
					JOINT rForeArm
					{
						OFFSET -10.139888 0.000000 0.000000 
						CHANNELS 3 Yrotation Zrotation Xrotation
						JOINT rHand
						{
							OFFSET -8.370511 0.000000 0.000000 
							CHANNELS 3 Zrotation Yrotation Xrotation
							End Site
							{
								OFFSET -4.083176 0.000000 0.000000 
							}
						}
					}
				}
			}
		}
	}
	JOINT lThigh
	{
		OFFSET 5.308129 -1.633274 1.361059 
		CHANNELS 3 Xrotation Zrotation Yrotation
		JOINT lShin
		{
			OFFSET -2.041588 -20.007561 0.000000 
			CHANNELS 3 Xrotation Zrotation Yrotation
			JOINT lFoot
			{
				OFFSET 0.000000 -19.190928 -1.224953 
				CHANNELS 3 Xrotation Yrotation Zrotation
				End Site
				{
					OFFSET 0.000000 -2.449906 4.627600 
				}
			}
		}
	}
	JOINT rThigh
	{
		OFFSET -5.308129 -1.633274 1.361059 
		CHANNELS 3 Xrotation Zrotation Yrotation
		JOINT rShin
		{
			OFFSET 2.041588 -20.007561 0.000000 
			CHANNELS 3 Xrotation Zrotation Yrotation
			JOINT rFoot
			{
				OFFSET 0.000000 -19.190928 -1.224953 
				CHANNELS 3 Xrotation Yrotation Zrotation
				End Site
				{
					OFFSET 0.000000 -2.449906 4.627600 
				}
			}
		}
	}
}
MOTION
Frames: 6
Frame Time: 0.033333
0.515673 41.993332 -1.346990 -168.144608 13.030302 -16.129295 0.000000 0.000000 0.000000 -12.893227 -1.747717 6.145369 -62.305660 4.677726 0.107860 -10.651113 7.131945 7.766343 32.041531 -2.497679 24.998861 74.470810 13.681879 -16.976685 9.036771 -3.452391 -111.435852 66.958267 26.590511 -24.230444 0.330543 -11.220267 24.715464 -83.426979 -31.908001 67.782295 0.485751 -9.337090 -170.321091 -76.631905 -57.019447 -20.509212 -0.944675 -8.657018 14.576485 5.444256 2.145501 0.930924 27.620125 -10.498025 5.538768 -8.530817 -7.476627 -0.837140 8.738100 4.159102 0.720787 48.250999 10.694216 15.818892 
0.713926 42.058186 -1.270932 -167.098404 14.163024 -14.652067 0.000000 0.000000 0.000000 -14.064338 -2.855931 5.895929 -61.214081 4.306635 0.088376 -11.204733 7.524248 6.876359 31.361444 -2.157247 24.994234 73.332626 12.617620 -17.524044 9.982087 -1.137451 -111.725769 68.020134 26.870365 -22.570656 -0.469721 -11.520795 24.532387 -83.195755 -31.952978 67.683777 1.170131 -9.352877 -170.032211 -75.933525 -57.053471 -21.160557 -1.150795 -9.615865 14.322333 5.757117 2.028590 0.891670 28.219437 -10.229498 4.990578 -9.186692 -8.239672 -1.034057 9.284104 4.236774 0.766420 48.296833 10.980476 14.540848 
0.932880 42.070957 -1.242303 -166.425903 15.365532 -13.194501 0.000000 0.000000 0.000000 -15.001617 -4.081847 5.629446 -60.579456 4.218745 0.088371 -11.120706 7.777077 6.200829 30.629557 -1.990214 24.920238 72.979103 11.937963 -17.719488 10.471109 -0.060028 -111.992577 68.982674 26.922245 -21.357624 -1.059040 -11.726096 24.386877 -82.961945 -31.776051 67.517418 1.447510 -9.443880 -169.949142 -76.585419 -57.107586 -21.123186 -1.129526 -10.842787 14.011077 5.846658 2.097466 0.892067 28.464190 -9.923243 4.966362 -9.413315 -9.227688 -1.329180 9.508864 4.187859 0.789896 48.584423 11.789190 14.380650 
1.178858 42.049603 -1.237437 -165.927979 16.708517 -11.671049 0.000000 0.000000 0.000000 -15.799925 -5.435464 5.335721 -60.977531 2.841797 -0.019507 -11.312470 8.177857 7.212948 29.869810 -1.991022 24.894171 73.183350 11.896268 -17.617779 10.052511 -0.099547 -112.385307 69.935600 26.548338 -20.737593 -1.592787 -11.927226 24.259575 -83.050171 -31.312828 67.454605 1.777041 -8.959817 -169.964203 -77.122665 -57.142128 -20.859838 -0.888026 -12.165624 13.646225 5.951113 2.184283 0.912608 28.356522 -9.576874 5.056520 -9.354443 -10.448020 -1.729290 9.620890 4.125399 0.794543 228.803406 167.371246 -165.499680 
1.524837 41.923504 -1.262661 -165.576477 18.662498 -9.920942 0.000000 0.000000 0.000000 -16.630936 -7.375222 4.933485 -61.428932 1.679685 -0.107376 -11.159821 8.161465 8.081487 29.101967 -2.345299 24.995689 74.360741 13.723216 -17.031929 6.449811 -2.026628 -113.688942 71.294868 24.702719 -21.988356 -1.774289 -11.896507 24.220587 -83.239532 -31.581121 67.615112 2.272789 -10.136262 -170.326096 -78.721031 -56.946312 -17.996075 -0.214353 -13.844397 13.173915 6.138229 1.931114 0.860782 28.543270 -8.338830 2.765699 -9.001972 -12.262571 -2.318262 9.847365 4.040356 0.785979 228.502304 166.905624 -167.358002 
1.888197 42.045319 -1.328924 -167.171875 16.977463 -10.050542 0.000000 0.000000 0.000000 -14.018221 -4.957985 5.459550 -62.611588 -0.996078 -0.322387 -11.121886 9.258017 9.867490 28.111187 -3.208749 24.999454 73.655624 13.890355 -17.353792 6.338958 -1.369195 -113.981995 71.380264 24.365055 -22.407492 -3.735538 -13.823389 23.601398 -83.161133 -32.136639 67.711044 4.070845 -9.521946 -169.490524 -70.122673 -57.005005 -24.436975 2.626848 -12.265197 13.571914 6.223914 1.698436 0.791866 28.778330 -6.931078 1.270712 -6.326889 -10.788653 -1.942399 9.616296 3.934092 0.752023 47.993450 12.989791 10.581616 
